<?xml version="1.0" encoding="UTF-8" standalone="no"?>
<!-- Generator: Adobe Illustrator 11.0, SVG Export Plug-In  -->

<svg
   xmlns:dc="http://purl.org/dc/elements/1.1/"
   xmlns:cc="http://creativecommons.org/ns#"
   xmlns:rdf="http://www.w3.org/1999/02/22-rdf-syntax-ns#"
   xmlns:svg="http://www.w3.org/2000/svg"
   xmlns="http://www.w3.org/2000/svg"
   xmlns:sodipodi="http://sodipodi.sourceforge.net/DTD/sodipodi-0.dtd"
   xmlns:inkscape="http://www.inkscape.org/namespaces/inkscape"
   height="307.224"
   space="preserve"
   viewBox="-0.484 -0.084 228.45599 307.224"
   width="228.45599"
   id="svg3058"
   version="1.1"
   inkscape:version="0.48.5 r10040"
   sodipodi:docname="pedestrian.svg">
  <sodipodi:namedview
     pagecolor="#ffffff"
     bordercolor="#666666"
     borderopacity="1"
     objecttolerance="10"
     gridtolerance="10"
     guidetolerance="10"
     inkscape:pageopacity="0"
     inkscape:pageshadow="2"
     inkscape:window-width="1440"
     inkscape:window-height="851"
     id="namedview3084"
     showgrid="false"
     fit-margin-top="0"
     fit-margin-left="0"
     fit-margin-right="0"
     fit-margin-bottom="0"
     inkscape:zoom="1"
     inkscape:cx="-93.673137"
     inkscape:cy="89.977703"
     inkscape:window-x="0"
     inkscape:window-y="0"
     inkscape:window-maximized="1"
     inkscape:current-layer="svg3058" />
  <metadata
     id="metadata3060">
    <rdf:RDF>
      <cc:Work
         rdf:about="">
        <dc:title></dc:title>
        <dc:description />
        <dc:subject>
          <rdf:Bag>
            <rdf:li>unsorted</rdf:li>
          </rdf:Bag>
        </dc:subject>
        <dc:publisher>
          <cc:Agent
             rdf:about="http://www.openclipart.org/">
            <dc:title>Open Clip Art Library</dc:title>
          </cc:Agent>
        </dc:publisher>
        <dc:creator>
          <cc:Agent>
            <dc:title>V                  gverket</dc:title>
          </cc:Agent>
        </dc:creator>
        <dc:rights>
          <cc:Agent>
            <dc:title />
          </cc:Agent>
        </dc:rights>
        <dc:date />
        <dc:format>image/svg+xml</dc:format>
        <dc:type
           rdf:resource="http://purl.org/dc/dcmitype/StillImage" />
        <cc:license
           rdf:resource="http://web.resource.org/cc/PublicDomain" />
        <dc:language>en</dc:language>
      </cc:Work>
      <cc:License
         rdf:about="http://web.resource.org/cc/PublicDomain">
        <cc:permits
           rdf:resource="http://web.resource.org/cc/Reproduction" />
        <cc:permits
           rdf:resource="http://web.resource.org/cc/Distribution" />
        <cc:permits
           rdf:resource="http://web.resource.org/cc/DerivativeWorks" />
      </cc:License>
    </rdf:RDF>
  </metadata>
  <defs
     id="defs3062" />
  <path
     inkscape:connector-curvature="0"
     id="path3074"
     d="m 157.124,64.068 c -2.232,-1.8 -4.68,-3.24 -7.272,-4.32 -4.248,-1.8 -8.424,-3.816 -12.6,-5.976 -2.448,-0.936 -4.32,-2.736 -5.4,-4.968 -1.008,-3.168 -1.44,-6.408 -1.152,-9.648 0.648,-3.744 1.584,-7.416 2.808,-11.016 0.576,-2.448 0.864,-5.112 0.864,-7.704 0,-2.16 -0.216,-4.392 -0.576,-6.552 -1.224,-5.832 -5.544,-10.512 -11.304,-12.168 -2.736,-1.152 -5.688,-1.8 -8.712,-1.8 -4.608,0 -9.072,1.44 -12.816,4.104 -3.672001,3.168 -5.760001,7.776 -5.760001,12.672 0,1.368 0.144,2.736 0.504,4.104 0.216,1.08 0.36,2.16 0.36,3.24 0,0.648 0,1.224 -0.144,1.8 -0.432,1.728 -0.648,3.384 -0.648,5.112 0,5.184 1.944,10.08 5.472001,13.824 1.656,1.008 3.528,1.512 5.472,1.512 h 0.072 c 2.088,-0.216 4.032,1.152 4.608,3.168 0.072,0.288 0.144,0.504 0.144,0.72 0,1.008 -0.36,2.016 -1.08,2.808 -3.456,3.024 -7.128,6.048 -10.944001,8.928 -2.448,1.872 -4.464,3.816 -6.192,5.904 -1.44,2.232 -2.376,4.752 -2.736,7.416 l -5.472,33.552 -35.064,28.008 -0.36,0.288 c -1.944,1.512 -3.024,3.816 -3.024,6.192 0,4.32 3.528,7.848 7.848,7.848 1.656,0 3.312,-0.504 4.608,-1.44 l 8.136,-5.832 2.592,2.232 26.856,-20.016 6.120001,-10.368 2.52,37.008 L 22.771999,283.308 7.2199988,279.924 -0.48400122,286.908 36.811999,307.14 122.852,194.46 l 28.8,52.632 47.88,43.776 -1.44,5.904 -8.856,2.16 -3.384,7.272 h 22.608 l 19.512,-29.52 -33.768,-34.2 L 178.22,221.1 153.668,169.188 c 1.368,-3.672 2.016,-7.488 2.016,-11.376 0,-6.479 -1.944,-12.96 -5.544,-18.432 -0.936,-1.728 -1.296,-3.744 -1.152,-5.688 l -0.936,-36.216 13.608,20.376 6.768,43.56 c 0.576,3.816 3.888,6.696 7.776,6.696 4.32,0 7.92,-3.528 7.92,-7.848 0,-0.216 0,-0.432 -0.072,-0.576 l -0.648,-9.576 2.16,-0.504 -4.824,-44.928 -19.224,-34.92 c -1.152,-2.088 -2.664,-4.032 -4.392,-5.688 z"
     style="fill:#14ccb0;fill-opacity:1" />
</svg>
