<?xml version="1.0" encoding="UTF-8" standalone="no"?>
<!-- Generator: Adobe Illustrator 16.0.0, SVG Export Plug-In . SVG Version: 6.00 Build 0)  -->

<svg
   xmlns:dc="http://purl.org/dc/elements/1.1/"
   xmlns:cc="http://creativecommons.org/ns#"
   xmlns:rdf="http://www.w3.org/1999/02/22-rdf-syntax-ns#"
   xmlns:svg="http://www.w3.org/2000/svg"
   xmlns="http://www.w3.org/2000/svg"
   xmlns:sodipodi="http://sodipodi.sourceforge.net/DTD/sodipodi-0.dtd"
   xmlns:inkscape="http://www.inkscape.org/namespaces/inkscape"
   version="1.1"
   id="Layer_1"
   x="0px"
   y="0px"
   width="499.99866"
   height="375.37387"
   viewBox="0 0 499.99866 375.37387"
   enable-background="new 0 0 512 512"
   xml:space="preserve"
   inkscape:version="0.91 r13725"
   sodipodi:docname="fullSignal.svg"><metadata
     id="metadata27"><rdf:RDF><cc:Work
         rdf:about=""><dc:format>image/svg+xml</dc:format><dc:type
           rdf:resource="http://purl.org/dc/dcmitype/StillImage" /><dc:title></dc:title></cc:Work></rdf:RDF></metadata><defs
     id="defs25" /><sodipodi:namedview
     pagecolor="#ffffff"
     bordercolor="#666666"
     borderopacity="1"
     objecttolerance="10"
     gridtolerance="10"
     guidetolerance="10"
     inkscape:pageopacity="0"
     inkscape:pageshadow="2"
     inkscape:window-width="1440"
     inkscape:window-height="851"
     id="namedview23"
     showgrid="false"
     fit-margin-top="0"
     fit-margin-left="0"
     fit-margin-right="0"
     fit-margin-bottom="0"
     inkscape:zoom="0.921875"
     inkscape:cx="511.42316"
     inkscape:cy="187.68684"
     inkscape:window-x="0"
     inkscape:window-y="0"
     inkscape:window-maximized="1"
     inkscape:current-layer="Layer_1" /><g
     id="g5"
     transform="translate(-6.0005659,-68.31297)"
     style="fill:#666666"><g
       id="g7"
       style="fill:#666666"><path
         d="M 6.644,273.594 C 1.366,200.297 28.789,125.304 80.439,72.991 c 7.056,-6.854 19.4,-5.96 25.867,1.271 7.83,6.642 7.968,19.942 0.34,26.796 -43.083,44.751 -66.38,107.934 -61.746,169.974 3.316,51.539 25.516,101.467 61.073,138.866 3.399,3.326 6.19,7.573 6.43,12.464 1.437,12.251 -11.368,23.581 -23.352,20.938 -4.302,-0.745 -7.885,-3.51 -10.75,-6.669 C 36.379,392.848 10.632,334.068 6.644,273.594 Z"
         id="path9"
         inkscape:connector-curvature="0"
         style="fill:#666666" /><path
         d="m 78.523,275.408 c -6.108,-56.155 14.591,-114.465 54.717,-154.204 7.093,-6.209 18.691,-5.435 25.066,1.464 7.7,6.292 8.565,18.976 1.583,26.106 -25.083,25.443 -41.01,59.839 -43.617,95.506 -3.593,43.313 12.841,87.567 43.359,118.407 7.518,7.112 6.661,20.358 -1.336,26.76 -6.512,6.899 -18.423,7.471 -25.322,0.849 C 102.39,359.731 82.935,318.398 78.523,275.408 Z"
         id="path11"
         inkscape:connector-curvature="0"
         style="fill:#666666" /><path
         d="m 149.443,267.108 c -3.519,-35.438 10.051,-72.073 35.715,-96.732 7.028,-6.752 19.123,-5.97 25.626,1.142 7.794,6.458 8.319,19.4 1.014,26.419 -14.269,13.9 -23.287,33.153 -24.374,53.087 -1.612,22.624 7.324,45.515 23.223,61.58 4.44,3.951 7.167,9.819 6.458,15.826 -0.978,13.946 -19.594,23.628 -30.768,14.021 -21.04,-19.399 -34.075,-46.952 -36.894,-75.343 z"
         id="path13"
         inkscape:connector-curvature="0"
         style="fill:#666666" /><path
         d="m 215.667,261.646 c -3.832,-22.836 15.025,-46.013 38.182,-46.75 22.707,-2.118 44.253,17.926 43.755,40.715 0.71,20.487 -16.286,39.473 -36.662,41.27 -21.39,2.92 -42.808,-13.809 -45.275,-35.235 z"
         id="path15"
         inkscape:connector-curvature="0"
         style="fill:#666666" /></g><path
       d="m 505.356,238.407 c 5.277,73.296 -22.146,148.289 -73.795,200.602 -7.057,6.854 -19.4,5.961 -25.866,-1.271 -7.83,-6.642 -7.969,-19.942 -0.341,-26.797 43.082,-44.75 66.379,-107.934 61.745,-169.973 -3.315,-51.54 -25.516,-101.467 -61.073,-138.866 -3.399,-3.326 -6.19,-7.573 -6.43,-12.464 -1.438,-12.251 11.367,-23.582 23.352,-20.938 4.302,0.746 7.886,3.509 10.75,6.669 41.923,43.783 67.669,102.563 71.658,163.038 z"
       id="path17"
       inkscape:connector-curvature="0"
       style="fill:#666666" /><path
       d="m 433.477,236.592 c 6.108,56.155 -14.591,114.464 -54.717,154.203 -7.093,6.209 -18.691,5.436 -25.065,-1.464 -7.701,-6.292 -8.566,-18.976 -1.584,-26.106 25.083,-25.442 41.011,-59.839 43.617,-95.506 3.593,-43.314 -12.841,-87.567 -43.359,-118.407 -7.518,-7.112 -6.661,-20.358 1.336,-26.76 6.512,-6.899 18.423,-7.471 25.322,-0.848 30.582,30.565 50.038,71.898 54.45,114.888 z"
       id="path19"
       inkscape:connector-curvature="0"
       style="fill:#666666" /><path
       d="m 362.557,244.892 c 3.519,35.437 -10.05,72.073 -35.715,96.732 -7.028,6.752 -19.123,5.97 -25.626,-1.143 -7.794,-6.457 -8.319,-19.399 -1.014,-26.419 14.269,-13.9 23.287,-33.153 24.374,-53.087 1.612,-22.624 -7.323,-45.515 -23.223,-61.58 -4.44,-3.952 -7.167,-9.819 -6.458,-15.826 0.978,-13.946 19.594,-23.627 30.768,-14.02 21.039,19.4 34.074,46.952 36.894,75.343 z"
       id="path21"
       inkscape:connector-curvature="0"
       style="fill:#666666" /></g></svg>