<?xml version="1.0" encoding="UTF-8" standalone="no"?>
<!-- Generator: Adobe Illustrator 16.0.0, SVG Export Plug-In . SVG Version: 6.00 Build 0)  -->

<svg
   xmlns:dc="http://purl.org/dc/elements/1.1/"
   xmlns:cc="http://creativecommons.org/ns#"
   xmlns:rdf="http://www.w3.org/1999/02/22-rdf-syntax-ns#"
   xmlns:svg="http://www.w3.org/2000/svg"
   xmlns="http://www.w3.org/2000/svg"
   xmlns:sodipodi="http://sodipodi.sourceforge.net/DTD/sodipodi-0.dtd"
   xmlns:inkscape="http://www.inkscape.org/namespaces/inkscape"
   version="1.1"
   id="Layer_1"
   x="0px"
   y="0px"
   width="499.99866"
   height="375.37387"
   viewBox="0 0 499.99866 375.37387"
   enable-background="new 0 0 512 512"
   xml:space="preserve"
   inkscape:version="0.91 r13725"
   sodipodi:docname="lowSignal.svg"><metadata
     id="metadata27"><rdf:RDF><cc:Work
         rdf:about=""><dc:format>image/svg+xml</dc:format><dc:type
           rdf:resource="http://purl.org/dc/dcmitype/StillImage" /><dc:title></dc:title></cc:Work></rdf:RDF></metadata><defs
     id="defs25" /><sodipodi:namedview
     pagecolor="#ffffff"
     bordercolor="#666666"
     borderopacity="1"
     objecttolerance="10"
     gridtolerance="10"
     guidetolerance="10"
     inkscape:pageopacity="0"
     inkscape:pageshadow="2"
     inkscape:window-width="1440"
     inkscape:window-height="851"
     id="namedview23"
     showgrid="false"
     fit-margin-top="0"
     fit-margin-left="0"
     fit-margin-right="0"
     fit-margin-bottom="0"
     inkscape:zoom="0.921875"
     inkscape:cx="511.42316"
     inkscape:cy="187.68684"
     inkscape:window-x="0"
     inkscape:window-y="0"
     inkscape:window-maximized="1"
     inkscape:current-layer="Layer_1" /><path
     d="m 143.44243,198.79503 c -3.519,-35.438 10.051,-72.073 35.715,-96.732 7.028,-6.752 19.123,-5.97 25.626,1.142 7.794,6.458 8.319,19.4 1.014,26.419 -14.269,13.9 -23.287,33.153 -24.374,53.087 -1.612,22.624 7.324,45.515 23.223,61.58 4.44,3.951 7.167,9.819 6.458,15.826 -0.978,13.946 -19.594,23.628 -30.768,14.021 -21.04,-19.399 -34.075,-46.952 -36.894,-75.343 z"
     id="path13"
     inkscape:connector-curvature="0"
     style="fill:#666666" /><path
     d="m 209.66643,193.33303 c -3.832,-22.836 15.025,-46.013 38.182,-46.75 22.707,-2.118 44.253,17.926 43.755,40.715 0.71,20.487 -16.286,39.473 -36.662,41.27 -21.39,2.92 -42.808,-13.809 -45.275,-35.235 z"
     id="path15"
     inkscape:connector-curvature="0"
     style="fill:#666666" /><path
     style="fill:#666666"
     inkscape:connector-curvature="0"
     id="path21"
     d="m 356.55643,176.57903 c 3.519,35.437 -10.05,72.073 -35.715,96.732 -7.028,6.752 -19.123,5.97 -25.626,-1.143 -7.794,-6.457 -8.319,-19.399 -1.014,-26.419 14.269,-13.9 23.287,-33.153 24.374,-53.087 1.612,-22.624 -7.323,-45.515 -23.223,-61.58 -4.44,-3.952 -7.167,-9.819 -6.458,-15.826 0.978,-13.946 19.594,-23.627 30.768,-14.02 21.039,19.4 34.074,46.952 36.894,75.343 z" /></svg>